<?xml version="1.0" encoding="UTF-8"?>
<svg id="Layer_1" data-name="Layer 1" xmlns="http://www.w3.org/2000/svg" viewBox="0 0 170 170">
  <defs>
    <style>
      .cls-1 {
        fill: #fff;
        fill-rule: evenodd;
      }
    </style>
  </defs>
  <path class="cls-1" d="m35.06,74.39l-2.59,2.21s-1.03-2.58-3.91-2.58-4.58,1.08-4.58,4.3v4.49c0,1.21.5,4.4,3.75,4.4s4.68-2.53,4.68-2.53l2.77,2.1s-2.16,3.98-7.34,3.98-7.84-3.74-7.84-7.48c0-3.27.12-2.66.12-5.84s2.52-6.34,6.67-6.78c4.14-.43,7.16,1.57,8.27,3.74Z"/>
  <path class="cls-1" d="m56.09,70.98h3.92s-.06,8.88-.06,11.1.87,5.24,3.86,5.24,4.2-1.38,4.2-5.13v-11.09h3.92v19.52h-3.37v-1.76s-2.31,1.99-5.73,1.99-6.74-2.97-6.74-7.06-.05-12.81,0-12.81Z"/>
  <path class="cls-1" d="m129.35,90.85h-3.91s.06-8.87.06-11.09-.87-5.25-3.86-5.25-4.2,2.07-4.2,5.63v10.61h-3.92v-19.54h3.37v1.76s1.06-2.12,5.32-1.99c4.24.14,7.14,2.98,7.14,7.07s.07,12.8,0,12.8Z"/>
  <path class="cls-1" d="m43.77,70.6h2c3.74,0,6.78,3.05,6.78,6.79v6.44c0,3.74-3.04,6.79-6.78,6.79h-2c-3.73,0-6.78-3.05-6.78-6.79v-6.44c0-3.74,3.04-6.79,6.78-6.79h0Zm.28,3.42c-1.87,0-3.41,1.88-3.41,4.17v4.84c0,2.3,1.54,4.18,3.41,4.18h1.57c1.88,0,3.41-1.88,3.41-4.18v-4.84c0-2.29-1.53-4.17-3.41-4.17h-1.57Z"/>
  <path class="cls-1" d="m75.74,71.1v27.36h4.25v-9.11s.87,1.39,4.74,1.39,7.06-3.31,7.06-6.74v-6.57c0-1.93-1.64-6.41-6.01-6.62-4.37-.21-5.69.93-6.3,2.1v-1.87l-3.74.06h0Zm7.32,2.92h1.94c1.88,0,3.41,1.88,3.41,4.17v4.84c0,2.3-1.53,4.18-3.41,4.18h-1.94c-1.87,0-3.41-1.88-3.41-4.18v-4.84c0-2.29,1.53-4.17,3.41-4.17Z"/>
  <path class="cls-1" d="m95.66,72.42l1.6,2.64s1.72-1.32,4.8-1.04c3.09.28,3.81,2.37,3.76,4.2,0,0-1.45-1.11-4.48-1.11s-5.96,1.99-6.56,4.42c-.62,2.43-.55,8.11,4.31,9.05,4.86.94,7.11-1.71,7.11-1.71v1.83h3.32v-13.91c0-6.95-9.66-8.12-13.85-4.35h0Zm5.9,7.85h.5c1.82,0,3.31,1.48,3.31,3.3v.66c0,1.83-1.49,3.31-3.31,3.31h-.5c-1.82,0-3.3-1.48-3.3-3.31v-.66c0-1.82,1.48-3.3,3.3-3.3Z"/>
  <path class="cls-1" d="m144.96,72.35c.78-.74,2.16-2.16,4.99-1.2l.06,2.93s-1.9-.67-3.22.62c.45.93.7,1.97.7,3.07h0c0,3.76-2.91,6.83-6.46,6.83-2.27,0-3.02.16-5.06,3.03-.32.61.24.37.24.37,1.25-.74,5.37-1.01,8.03-.5,2.62.46,5.27,2.81,5.36,6.03.1,3.21-4.82,6.16-4.82,6.16l-1.7-2.81c1.63-1.63,3.78-2.72,1.72-4.97-2.06-2.26-7.12-1.03-9.49-.5-2.38.53-2.9-2.05-2.68-4,.21-1.95,2.1-3.36,2.84-3.88-1.8-1.22-3.01-3.36-3.01-5.77h0c0-3.76,2.9-6.84,6.47-6.84h2.1c1.48,0,2.84.54,3.94,1.43h0Zm-5.28,1.7c-2.12,0-3.85,1.56-3.85,3.48v.7c0,1.91,1.73,3.47,3.85,3.47h.6c2.11,0,3.85-1.55,3.85-3.47v-.7c0-1.92-1.74-3.48-3.85-3.48h-.6Z"/>
</svg>