<?xml version="1.0" encoding="UTF-8"?>
<svg id="Layer_1" data-name="Layer 1" xmlns="http://www.w3.org/2000/svg" viewBox="0 0 170 170">
  <defs>
    <style>
      .cls-1 {
        fill: #fff;
      }
    </style>
  </defs>
  <path class="cls-1" d="m39.99,79.57v4.04h9.65c-.3,2.27-1.05,3.92-2.2,5.09-1.41,1.41-3.61,2.96-7.45,2.96-5.94,0-10.59-4.79-10.59-10.74s4.65-10.74,10.59-10.74c3.2,0,5.55,1.26,7.27,2.89l2.84-2.84c-2.4-2.33-5.61-4.1-10.11-4.1-8.14,0-14.99,6.63-14.99,14.77s6.85,14.77,14.99,14.77c4.4,0,7.71-1.44,10.31-4.14,2.66-2.66,3.5-6.42,3.5-9.44,0-.94-.07-1.81-.21-2.53h-13.59Z"/>
  <path class="cls-1" d="m65.86,76.29c-5.27,0-9.57,4.01-9.57,9.54s4.3,9.54,9.57,9.54,9.57-4.04,9.57-9.54c0-5.53-4.3-9.54-9.57-9.54m0,15.32c-2.89,0-5.38-2.38-5.38-5.78s2.5-5.78,5.38-5.78,5.38,2.35,5.38,5.78-2.5,5.78-5.38,5.78"/>
  <path class="cls-1" d="m112.78,78.43h-.15c-.94-1.12-2.74-2.13-5.02-2.13-4.76,0-8.91,4.15-8.91,9.54s4.15,9.54,8.91,9.54c2.28,0,4.09-1.02,5.02-2.17h.15v1.33c0,3.64-1.95,5.6-5.09,5.6-2.56,0-4.15-1.84-4.81-3.4l-3.64,1.51c1.05,2.53,3.82,5.63,8.45,5.63,4.91,0,9.06-2.89,9.06-9.93v-17.15h-3.97v1.64Zm-4.81,13.18c-2.89,0-5.09-2.46-5.09-5.78s2.2-5.78,5.09-5.78,5.09,2.46,5.09,5.81c.02,3.33-2.23,5.75-5.09,5.75"/>
  <path class="cls-1" d="m87.2,76.29c-5.27,0-9.57,4.01-9.57,9.54s4.3,9.54,9.57,9.54,9.57-4.04,9.57-9.54-4.3-9.54-9.57-9.54m0,15.32c-2.89,0-5.38-2.38-5.38-5.78s2.5-5.78,5.38-5.78,5.38,2.35,5.38,5.78c0,3.4-2.5,5.78-5.38,5.78"/>
  <rect class="cls-1" x="120.03" y="66.52" width="4.12" height="28.84"/>
  <path class="cls-1" d="m136.87,91.61c-2.13,0-3.64-.97-4.63-2.89l12.76-5.27-.43-1.08c-.79-2.13-3.22-6.07-8.16-6.07s-9,3.86-9,9.54c0,5.35,4.04,9.54,9.46,9.54,4.37,0,6.89-2.68,7.95-4.22l-3.25-2.17c-1.08,1.57-2.56,2.63-4.7,2.63m-.3-11.74c1.69,0,3.14.87,3.61,2.1l-8.62,3.56c0-4.01,2.84-5.66,5.01-5.66"/>
</svg>