<svg xmlns="http://www.w3.org/2000/svg" xmlns:xlink="http://www.w3.org/1999/xlink" width="60" height="60" viewBox="0 0 60 60">
  <defs>
    <clipPath id="clip-path">
      <rect id="사각형_7669" data-name="사각형 7669" width="60" height="60" fill="#fff"/>
    </clipPath>
  </defs>
  <g id="마스크_그룹_68" data-name="마스크 그룹 68" clip-path="url(#clip-path)">
    <g id="user-search-fill">
      <path id="패스_19499" data-name="패스 19499" d="M0,0H60V60H0Z" fill="none"/>
      <path id="패스_19500" data-name="패스 19500" d="M28.333,34.583v20h-20a20,20,0,0,1,20-20Zm0-2.5a15,15,0,1,1,15-15A15,15,0,0,1,28.333,32.083Zm23.615,17.58,3.76,3.76-3.535,3.535-3.76-3.76a10,10,0,1,1,3.535-3.535Zm-8.615-.08a5,5,0,1,0-5-5A5,5,0,0,0,43.333,49.583Z" transform="translate(1.667 0.417)" fill="#fff"/>
    </g>
  </g>
</svg>
