<svg xmlns="http://www.w3.org/2000/svg" xmlns:xlink="http://www.w3.org/1999/xlink" width="60" height="60" viewBox="0 0 60 60"><defs><clipPath id="a"><rect width="60" height="60" transform="translate(1020 4453)" fill="#fff"/></clipPath></defs><g transform="translate(-1020 -4453)" clip-path="url(#a)"><g transform="translate(56.664 -67.002)"><path d="M20321.992,4668.755H20304v-3.5h7V4661h-9.742a11.006,11.006,0,0,0-10.254-7c-.334,0-.672.015-1,.045V4626h46v35h-21.5v4.251h7.5v3.5h0Zm-9.246-24.248a9.007,9.007,0,0,0-9,9,7.766,7.766,0,0,0,.057,1h17.887l0-.006a9.637,9.637,0,0,0,.055-.995A9.009,9.009,0,0,0,20312.746,4644.508Zm0-10a5,5,0,1,0,5,5A5.005,5.005,0,0,0,20312.746,4634.5Z" transform="translate(-19313 -106)" fill="#fff"/><path d="M20294.332,4654.009H20280l1.488-8.094s1.289-5.917,6.568-5.917h12.549c5.281,0,6.57,5.917,6.57,5.917l1.488,8.094ZM20287,4633a7,7,0,1,1,7,7A7,7,0,0,1,20287,4633Z" transform="translate(-19315.664 -74.011)" fill="#fff"/></g></g></svg>