<svg xmlns="http://www.w3.org/2000/svg" xmlns:xlink="http://www.w3.org/1999/xlink" width="120" height="190" viewBox="0 0 120 190">
  <defs>
    <clipPath id="clip-path">
      <rect id="사각형_353244" data-name="사각형 353244" width="120" height="190" transform="translate(1353 1926)" fill="#fff" stroke="#707070" stroke-width="1"/>
    </clipPath>
    <clipPath id="clip-path-2">
      <rect id="사각형_353176" data-name="사각형 353176" width="95.359" height="184" fill="none"/>
    </clipPath>
  </defs>
  <g id="마스크_그룹_472087" data-name="마스크 그룹 472087" transform="translate(-1353 -1926)" clip-path="url(#clip-path)">
    <g id="그룹_472474" data-name="그룹 472474" transform="translate(1365 1929)">
      <g id="그룹_472473" data-name="그룹 472473" clip-path="url(#clip-path-2)">
        <path id="패스_863384" data-name="패스 863384" d="M36.244,67.987c-3.52,2.737-8.728,6.787-16.123,6.635C18.949,74.6,9.4,74.257,5.007,67.12c-.577-.938-3.21-5.217-1.735-9.2,1.57-4.239,6.4-4.357,6.627-7.1.306-3.643-8.1-4.506-9.649-9.707C-1.416,35.5,5.512,26.883,13.307,22.791c9.389-4.929,18.122-2.284,20.128-7.161C34.6,12.8,32,11.105,33.294,7.249,34.678,3.14,39.747-1.2,44.227.308a7.4,7.4,0,0,1,4.859,7.115c-.326,3.586-4.22,4.13-6.421,7.288-5.615,8.06,9.153,19.714,6.383,34.952-1.771,9.745-9.814,16-12.8,18.324" transform="translate(0 0)"/>
        <path id="패스_863385" data-name="패스 863385" d="M168.319,85.545s4.478,1.595,10,8.738,17.936,7.543,21.951,2.636,3.579-6.265,3.579-6.265l1.466,4.209s-1.177,21.195-20.3,17.93c-3.936-.672-9.586-1.924-11.9-3.961-8.948-7.862-4.786-23.287-4.786-23.287" transform="translate(-116.608 -59.606)" fill="#91aaff"/>
        <path id="패스_863386" data-name="패스 863386" d="M105.423,114.463c-4.3-17.514,1.146-24.891-5.014-30.3-5.637-4.955-15.4-3.35-19.624-2.656-4.792.787-8.763,1.44-11.463,4.48a8.351,8.351,0,0,0-1.575,2.553v0c-5.158,9.713-.977,19.741,1.6,24.375.425,18.575-6.928,24.158-2.086,31.038,5.242,7.449,18.2,7.074,25.009,5.59,2.388-.521,15.774-3.74,18.83-13.387,2-6.324-2.522-8.815-5.679-21.684" transform="translate(-45.495 -56.225)" fill="#91aaff"/>
        <path id="패스_863387" data-name="패스 863387" d="M179.977,131.667s11.04-4.025,14.487-11.382l7.106-6.622s-.1,3.2-2.21,4.537c0,0,1.811,3.648-.861,6.166,0,0-2,1.593-3.2,1.622,0,0-3.5,11.5-12.948,14.918a16.8,16.8,0,0,1-2.373-9.239" transform="translate(-125.391 -79.198)" fill="#fff"/>
        <path id="패스_863388" data-name="패스 863388" d="M181.3,140.316a.455.455,0,0,1-.38-.2,17.106,17.106,0,0,1-2.448-9.513.455.455,0,0,1,.3-.4c.109-.04,10.9-4.048,14.231-11.148a.46.46,0,0,1,.1-.14l7.106-6.622a.455.455,0,0,1,.765.347c0,.134-.122,3.145-2.1,4.685.395,1.042,1.261,4.1-1.11,6.335l-.029.025a9.171,9.171,0,0,1-3.14,1.685c-.623,1.855-4.307,11.729-13.136,14.927a.451.451,0,0,1-.155.027m-1.932-9.375A16.558,16.558,0,0,0,181.5,139.3c8.869-3.462,12.285-14.38,12.319-14.491a.454.454,0,0,1,.424-.322,7.272,7.272,0,0,0,2.913-1.512c2.379-2.26.769-5.586.752-5.619a.455.455,0,0,1,.164-.586,4.672,4.672,0,0,0,1.817-2.938l-6.1,5.68c-3.251,6.815-12.62,10.728-14.419,11.428" transform="translate(-124.345 -78.153)" fill="#c6c6c6"/>
        <path id="패스_863389" data-name="패스 863389" d="M113.151,203.468a25.951,25.951,0,0,1-7.675-1.125,19.841,19.841,0,0,1-6.888-3.535.455.455,0,0,1,.6-.681c.092.082,9.439,8.11,25,2.337a.455.455,0,0,1,.317.853,32.53,32.53,0,0,1-11.356,2.152" transform="translate(-68.588 -137.972)" fill="#3757c4"/>
        <path id="패스_863390" data-name="패스 863390" d="M121.746,131.194a17.561,17.561,0,0,1-15.342-8.647,28.4,28.4,0,0,1-3.832-9.86.455.455,0,0,1,.9-.139,28.007,28.007,0,0,0,3.716,9.534c3.886,6.1,9.527,8.823,16.767,8.087a.455.455,0,0,1,.092.905,22.8,22.8,0,0,1-2.3.119" transform="translate(-71.467 -78.153)" fill="#3757c4"/>
        <path id="패스_863391" data-name="패스 863391" d="M254.317,78.189l-9.026,32.14,10.584-3.058L265.818,75.6Z" transform="translate(-170.914 -52.677)" fill="#fff"/>
        <path id="패스_863392" data-name="패스 863392" d="M244.245,109.738a.455.455,0,0,1-.438-.578l9.026-32.14a.455.455,0,0,1,.338-.321l11.5-2.589a.455.455,0,0,1,.534.58l-9.943,31.671a.455.455,0,0,1-.308.3l-10.584,3.058a.463.463,0,0,1-.126.018m9.39-32.211L244.9,108.619l9.565-2.763L264.1,75.172Z" transform="translate(-169.869 -51.631)" fill="#c6c6c6"/>
        <path id="패스_863393" data-name="패스 863393" d="M293.981,108.13s2.716-2.858,3.346-5.127-3.346-7.262-3.346-7.262Z" transform="translate(-204.841 -66.711)" fill="#fff"/>
        <path id="패스_863394" data-name="패스 863394" d="M292.936,107.539a.455.455,0,0,1-.455-.455V94.7a.455.455,0,0,1,.811-.283c.422.529,4.1,5.244,3.428,7.667-.653,2.351-3.34,5.2-3.455,5.319a.455.455,0,0,1-.33.142m.455-11.47v9.805a12.931,12.931,0,0,0,2.453-4.039c.371-1.336-1.242-4.043-2.453-5.766" transform="translate(-203.795 -65.665)" fill="#c6c6c6"/>
        <path id="패스_863395" data-name="패스 863395" d="M177.961,117.547a.443.443,0,0,1-.066,0,.454.454,0,0,1-.384-.516c1.432-9.792-3.04-15.331-3.085-15.386a.455.455,0,0,1,.7-.581c.2.235,4.781,5.883,3.286,16.1a.455.455,0,0,1-.449.389" transform="translate(-121.463 -70.302)" fill="#3757c4"/>
        <path id="패스_863396" data-name="패스 863396" d="M131.042,428.347c0,2.083-4.847.125-10.938,1.469-8.87,1.959-13.33-1.706-13.33-3.789s6.658-1.452,12.923-1.452,11.345,1.689,11.345,3.771" transform="translate(-74.398 -295.774)"/>
        <path id="패스_863397" data-name="패스 863397" d="M97.952,409.188,71.11,444.839l-4.281-3.787s11.135-28.881,20.924-31.682l7.282-4.442Z" transform="translate(-46.565 -282.147)" fill="#fff"/>
        <path id="패스_863398" data-name="패스 863398" d="M70.065,444.25a.455.455,0,0,1-.3-.114l-4.281-3.787a.456.456,0,0,1-.123-.5c.457-1.185,11.286-29.012,21.163-31.938l7.231-4.411a.455.455,0,0,1,.612.131l2.918,4.26a.455.455,0,0,1-.012.531L70.428,444.069a.455.455,0,0,1-.317.179l-.046,0m-3.741-4.372L70,443.128l26.35-35L93.858,404.5l-6.914,4.217a.444.444,0,0,1-.112.049c-8.94,2.558-19.3,28.074-20.509,31.115" transform="translate(-45.52 -281.102)"/>
        <path id="패스_863399" data-name="패스 863399" d="M130.949,402.784s-4.763,10.094-3.429,21.161,6.858,30.357,6.858,30.357h6.858l-1.614-52.807Z" transform="translate(-88.69 -279.754)" fill="#fff"/>
        <path id="패스_863400" data-name="패스 863400" d="M140.2,453.71H133.34a.455.455,0,0,1-.437-.33c-.055-.193-5.55-19.452-6.872-30.428-1.334-11.068,3.421-21.307,3.469-21.409a.455.455,0,0,1,.344-.256l8.674-1.29a.455.455,0,0,1,.522.436l1.613,52.807a.455.455,0,0,1-.455.469m-6.514-.91h6.045l-1.583-51.827-7.922,1.178c-.67,1.527-4.486,10.777-3.291,20.693,1.219,10.115,6.019,27.361,6.751,29.956" transform="translate(-87.651 -278.708)"/>
        <path id="패스_863401" data-name="패스 863401" d="M165.347,572.051c-1.79-2.646-8.495-6.9-14.6-10.065l-3.211.01a1.447,1.447,0,0,0-1.423,1.687l.23,1.367-2.209-2.038a1.156,1.156,0,0,0-1.892.517,24.069,24.069,0,0,0-1.124,7.035,1.946,1.946,0,0,0,1.164,1.741c2.348,1.034,11.774,3.64,21.319,3.234a2.234,2.234,0,0,0,1.747-3.488" transform="translate(-98.326 -391.582)"/>
        <path id="패스_863402" data-name="패스 863402" d="M163.487,590.451c-12.839,0-20.944-3.88-21.027-3.921a.455.455,0,0,1,.4-.818c.084.041,8.588,4.1,21.984,3.814a.455.455,0,1,1,.02.909q-.7.015-1.376.015" transform="translate(-99.086 -408.082)" fill="#fff"/>
        <path id="패스_863403" data-name="패스 863403" d="M179.256,574.709a.455.455,0,0,1-.437-.58c.037-.129.931-3.157,3.189-4.124a.455.455,0,1,1,.358.836c-1.858.8-2.665,3.512-2.673,3.539a.455.455,0,0,1-.437.328" transform="translate(-124.585 -397.144)" fill="#fff"/>
        <path id="패스_863404" data-name="패스 863404" d="M192.337,580.595a.467.467,0,0,1-.057,0,.455.455,0,0,1-.394-.508,4.717,4.717,0,0,1,2.3-3.752.455.455,0,0,1,.4.818,3.842,3.842,0,0,0-1.792,3.047.455.455,0,0,1-.451.4" transform="translate(-133.7 -401.546)" fill="#fff"/>
        <path id="패스_863405" data-name="패스 863405" d="M62.594,518.99l-2.238-1.671a1.364,1.364,0,0,0-2.028.465l-.534,1.029-.477-2.609a1.058,1.058,0,0,0-1.668-.663,21.479,21.479,0,0,0-4.559,4.405,1.741,1.741,0,0,0-.1,1.871A52.681,52.681,0,0,0,64.5,535.6a2,2,0,0,0,3.126-1.556c.143-2.855-2.365-9.5-5.029-15.054" transform="translate(-35.371 -359.075)"/>
        <path id="패스_863406" data-name="패스 863406" d="M68.116,543.82a.453.453,0,0,1-.265-.086c-9.919-7.132-13.9-14.787-13.938-14.863a.455.455,0,0,1,.81-.414c.038.075,3.931,7.544,13.658,14.538a.455.455,0,0,1-.266.824" transform="translate(-37.531 -368.047)" fill="#fff"/>
        <path id="패스_863407" data-name="패스 863407" d="M82.145,543.737a.455.455,0,0,1-.274-.818c.1-.073,2.382-1.771,4.539-1.243a.455.455,0,0,1-.216.884c-1.734-.425-3.755,1.071-3.776,1.086a.454.454,0,0,1-.273.091" transform="translate(-56.92 -377.36)" fill="#fff"/>
        <path id="패스_863408" data-name="패스 863408" d="M88.87,554.03a.455.455,0,0,1-.327-.771,4.274,4.274,0,0,1,3.706-1.461.455.455,0,0,1-.175.893,3.4,3.4,0,0,0-2.878,1.2.452.452,0,0,1-.327.138" transform="translate(-61.606 -384.458)" fill="#fff"/>
        <path id="패스_863409" data-name="패스 863409" d="M100.132,288.919c1.662-11.364-1.068-29.705-3.774-48.008,0,0,11.885-14.212,22.533-13.392,6.886.53,6.437,13.392,6.437,13.392l-1.987,50.169s-8.861-4.171-23.21-2.161" transform="translate(-67.141 -158.508)" fill="#fff"/>
        <path id="패스_863410" data-name="패스 863410" d="M122.3,290.489a.456.456,0,0,1-.193-.043c-.088-.041-8.922-4.088-22.953-2.122a.455.455,0,0,1-.513-.516c1.643-11.235-1.088-29.71-3.73-47.576l-.045-.3a.455.455,0,0,1,.1-.358c.491-.588,12.158-14.381,22.917-13.554,7.238.557,6.876,13.319,6.857,13.861l-1.987,50.171a.455.455,0,0,1-.455.437m-15.431-3.624a41.526,41.526,0,0,1,15,2.493l1.961-49.511c0-.122.354-12.43-6.018-12.921-9.7-.749-20.695,11.552-22.018,13.077l.014.095c2.605,17.62,5.3,35.831,3.812,47.244a56.269,56.269,0,0,1,7.246-.478" transform="translate(-66.095 -157.462)" fill="#3757c4"/>
        <path id="패스_863411" data-name="패스 863411" d="M85.827,279.69a.454.454,0,0,1-.43-.307c-.062-.182-1.473-4.515,2.806-8.979a.455.455,0,1,1,.657.629c-3.88,4.048-2.655,7.9-2.6,8.057a.455.455,0,0,1-.431.6" transform="translate(-59.314 -188.315)" fill="#3757c4"/>
        <path id="패스_863412" data-name="패스 863412" d="M128,33.587c-1.443-1.492-4.209-6.209-4.206-6.05.034,1.56-3.208,2-5.388,3.433s.809,4.107.809,4.107-2.165-1.718-2.522.581c-.207,1.334,1.364,1.742,2.626,1.841-.04.4-.091.9-.147,1.438a6.6,6.6,0,0,1-4.468,5.583L125.813,49.1l.864-4.283-1.132-.465a2.483,2.483,0,0,1-1.512-1.928l-.268-3.061a7.057,7.057,0,0,0,1.71.279,2.005,2.005,0,0,0,1.993-1.682,7.4,7.4,0,0,0-.143-3.691Z" transform="translate(-79.924 -19.185)" fill="#fff"/>
        <path id="패스_863413" data-name="패스 863413" d="M124.768,48.456a.454.454,0,0,1-.173-.034l-11.109-4.578a.455.455,0,0,1,.029-.852,6.159,6.159,0,0,0,4.16-5.2c.036-.353.071-.686.1-.987a3.344,3.344,0,0,1-2.255-1.006,1.65,1.65,0,0,1-.323-1.31A1.72,1.72,0,0,1,116.171,33a1.416,1.416,0,0,1,.508-.094,3.162,3.162,0,0,1-.564-1.85,2.04,2.04,0,0,1,1-1.567,16.372,16.372,0,0,1,2.682-1.317c1.294-.539,2.516-1.047,2.5-1.726a.461.461,0,0,1,.325-.449c.353-.107.352-.107,1.174,1.191a41.769,41.769,0,0,0,3.489,4.982.455.455,0,0,1,0,.637l-.483.487a8.028,8.028,0,0,1,.076,3.65A2.46,2.46,0,0,1,124.435,39a5.951,5.951,0,0,1-1.207-.145l.213,2.433a2.032,2.032,0,0,0,1.231,1.546l1.133.465a.455.455,0,0,1,.273.511l-.864,4.283a.454.454,0,0,1-.446.365m-9.935-5.04,9.6,3.955L125.112,44l-.785-.323a2.953,2.953,0,0,1-1.789-2.28l-.271-3.089a.455.455,0,0,1,.57-.479,6.162,6.162,0,0,0,1.588.263,1.551,1.551,0,0,0,1.551-1.312,6.915,6.915,0,0,0-.128-3.461.455.455,0,0,1,.108-.465l.372-.374a49.712,49.712,0,0,1-3.3-4.8l-.16-.253a6.918,6.918,0,0,1-2.721,1.591,15.434,15.434,0,0,0-2.532,1.237,1.138,1.138,0,0,0-.588.873c-.071.931,1.023,2.131,1.451,2.515a.455.455,0,0,1-.586.695c-.284-.224-1-.639-1.385-.486-.25.1-.359.479-.406.78a.734.734,0,0,0,.138.606,3.1,3.1,0,0,0,2.075.712.455.455,0,0,1,.417.5c-.041.4-.091.9-.147,1.439a7.075,7.075,0,0,1-3.746,5.529" transform="translate(-78.878 -18.087)" fill="#c6c6c6"/>
        <path id="패스_863414" data-name="패스 863414" d="M141.917,65.632l.81.276Z" transform="translate(-98.885 -45.731)" fill="#fff"/>
        <path id="패스_863415" data-name="패스 863415" d="M141.682,65.318a.452.452,0,0,1-.147-.025l-.81-.276a.455.455,0,1,1,.294-.861l.81.276a.455.455,0,0,1-.147.885" transform="translate(-97.84 -44.686)" fill="#c6c6c6"/>
      </g>
    </g>
  </g>
</svg>
