<svg xmlns="http://www.w3.org/2000/svg" xmlns:xlink="http://www.w3.org/1999/xlink" width="120" height="190" viewBox="0 0 120 190">
  <defs>
    <clipPath id="clip-path">
      <rect id="사각형_353243" data-name="사각형 353243" width="120" height="190" transform="translate(988 1929)" fill="#fff" stroke="#707070" stroke-width="1"/>
    </clipPath>
    <clipPath id="clip-path-2">
      <rect id="사각형_7865" data-name="사각형 7865" width="103.796" height="184" fill="none"/>
    </clipPath>
  </defs>
  <g id="마스크_그룹_472086" data-name="마스크 그룹 472086" transform="translate(-988 -1929)" clip-path="url(#clip-path)">
    <g id="그룹_472476" data-name="그룹 472476" transform="translate(996 1932)">
      <path id="패스_19713" data-name="패스 19713" d="M233.206,496.6l5.09,14.778,7.11-.366-5.078-16.337Z" transform="translate(-159.116 -337.514)" fill="#fff"/>
      <g id="그룹_24915" data-name="그룹 24915">
        <g id="그룹_24914" data-name="그룹 24914" clip-path="url(#clip-path-2)">
          <path id="패스_19714" data-name="패스 19714" d="M237.272,510.829a.476.476,0,0,1-.451-.321l-5.09-14.778a.476.476,0,0,1,.326-.615l7.121-1.925a.477.477,0,0,1,.579.319l5.078,16.337a.477.477,0,0,1-.43.618l-7.11.366h-.024M232.8,495.9l4.807,13.957,6.138-.316-4.76-15.313Z" transform="translate(-158.092 -336.49)"/>
          <path id="패스_19715" data-name="패스 19715" d="M241.145,539.08a56.168,56.168,0,0,0-.569,6.657,3.033,3.033,0,0,0,2.649,3.033,118.247,118.247,0,0,0,22.313.4,2.144,2.144,0,0,0,1.851-1.893c.938-4.785-7.34-5.959-16.415-9.43a.976.976,0,0,0-1.031.211l-.979.953a3.372,3.372,0,0,1-3.685.687l-2.977-1.277a.837.837,0,0,0-1.157.657" transform="translate(-164.144 -366.929)" fill="#5479f7"/>
          <path id="패스_19716" data-name="패스 19716" d="M255.877,548.984a117.581,117.581,0,0,1-13.737-.764,3.507,3.507,0,0,1-3.065-3.511,56.817,56.817,0,0,1,.574-6.717,1.313,1.313,0,0,1,1.817-1.029l2.977,1.277a2.89,2.89,0,0,0,3.165-.59l.979-.953a1.457,1.457,0,0,1,1.534-.314c2.116.809,4.15,1.48,6.117,2.13,6.366,2.1,11.395,3.76,10.6,7.837a2.629,2.629,0,0,1-2.275,2.276c-2.821.257-5.8.36-8.681.36M240.95,537.809a.358.358,0,0,0-.174.047.364.364,0,0,0-.182.268,55.936,55.936,0,0,0-.564,6.6,2.554,2.554,0,0,0,2.233,2.555,116.729,116.729,0,0,0,22.209.4,1.662,1.662,0,0,0,1.426-1.51c.638-3.252-3.807-4.719-9.959-6.748-1.977-.653-4.023-1.327-6.159-2.145a.5.5,0,0,0-.528.107l-.979.953a3.842,3.842,0,0,1-4.206.783l-2.977-1.277a.353.353,0,0,0-.14-.03m-.829.249h0Z" transform="translate(-163.12 -365.907)"/>
          <path id="패스_19717" data-name="패스 19717" d="M240.583,561.656s-.005.248-.006.369a3.032,3.032,0,0,0,2.649,3.032,118.234,118.234,0,0,0,22.314.4,2.144,2.144,0,0,0,1.851-1.893,6.317,6.317,0,0,0,.033-1.224l-.588.029a170.714,170.714,0,0,1-25.121-.6Z" transform="translate(-164.144 -383.216)" fill="#fff"/>
          <path id="패스_19718" data-name="패스 19718" d="M255.877,565.27a117.65,117.65,0,0,1-13.737-.764A3.507,3.507,0,0,1,239.075,561c0-.121.007-.373.007-.373a.476.476,0,0,1,.523-.464l1.131.111a170.82,170.82,0,0,0,25.051.6l.588-.029a.479.479,0,0,1,.5.444,6.527,6.527,0,0,1-.041,1.348,2.629,2.629,0,0,1-2.275,2.276c-2.82.258-5.8.359-8.681.359m-15.845-4.112a2.555,2.555,0,0,0,2.231,2.4,116.784,116.784,0,0,0,22.209.4,1.663,1.663,0,0,0,1.426-1.51,3.671,3.671,0,0,0,.04-.633l-.1.005a171.759,171.759,0,0,1-25.191-.607Z" transform="translate(-163.12 -382.193)"/>
          <path id="패스_19719" data-name="패스 19719" d="M278.832,546.829a.477.477,0,0,1-.338-.813l3.184-3.2a.477.477,0,0,1,.676.672l-3.185,3.2a.474.474,0,0,1-.338.141" transform="translate(-189.921 -370.263)"/>
          <path id="패스_19720" data-name="패스 19720" d="M288.678,549.045a.476.476,0,0,1-.344-.806l2.544-2.659a.477.477,0,0,1,.689.659l-2.545,2.659a.475.475,0,0,1-.344.147" transform="translate(-196.639 -372.148)"/>
          <path id="패스_19721" data-name="패스 19721" d="M127,506.226l-.963,12.667h-5.012l.663-12.331Z" transform="translate(-82.577 -345.396)" fill="#fff"/>
          <path id="패스_19722" data-name="패스 19722" d="M125.017,518.346H120a.477.477,0,0,1-.476-.5l.663-12.332a.477.477,0,0,1,.446-.45l5.313-.335a.476.476,0,0,1,.505.512l-.963,12.667a.476.476,0,0,1-.475.44m-4.509-.953h4.068l.888-11.68-4.343.274Z" transform="translate(-81.553 -344.373)"/>
          <path id="패스_19723" data-name="패스 19723" d="M112.327,545.491a4.05,4.05,0,0,1-3.637-3.445,16.959,16.959,0,0,1,2.977-10.952.536.536,0,0,1,.88.044l.055.05a.944.944,0,0,0,1.261-.01,1.751,1.751,0,0,1,1.113-.421l.58-.009a1.948,1.948,0,0,1,1.636.9.453.453,0,0,0,.721.044l.329-.371a.357.357,0,0,1,.605.248l.356,11.544c-.173,2.26-3.889,2.867-6.875,2.373" transform="translate(-74.141 -362.129)" fill="#5479f7"/>
          <path id="패스_19724" data-name="패스 19724" d="M113.294,545.106a12.9,12.9,0,0,1-2.069-.167,4.508,4.508,0,0,1-4.035-3.892,17.378,17.378,0,0,1,3.074-11.265,1.007,1.007,0,0,1,.846-.395,1.017,1.017,0,0,1,.774.413l.015.014a.472.472,0,0,0,.629-.021,2.235,2.235,0,0,1,1.416-.535l.581-.008a2.438,2.438,0,0,1,2.025,1.093l.337-.383a.824.824,0,0,1,.892-.174.836.836,0,0,1,.521.749l.357,11.569,0,.026a2.543,2.543,0,0,1-1.024,1.828,7.24,7.24,0,0,1-4.335,1.146M111.381,544c2.264.375,4.591.05,5.661-.788a1.579,1.579,0,0,0,.66-1.127l-.346-11.217-.111.125a.947.947,0,0,1-.786.314.9.9,0,0,1-.7-.423,1.451,1.451,0,0,0-1.224-.679l-.581.008a1.277,1.277,0,0,0-.81.307,1.413,1.413,0,0,1-1.892,0l-.1-.093-.034-.054a.062.062,0,0,0-.052-.03.052.052,0,0,0-.046.021A16.419,16.419,0,0,0,108.141,541a3.609,3.609,0,0,0,3.239,3" transform="translate(-73.117 -361.106)"/>
          <path id="패스_19725" data-name="패스 19725" d="M119.107,559.566a2.13,2.13,0,0,1-.322.707c-.514.72-1.916,2.13-4.912,1.885a7.051,7.051,0,0,1-5.174-2.776,20.305,20.305,0,0,0-.01,2.2,4.049,4.049,0,0,0,3.637,3.445c2.987.494,6.7-.113,6.876-2.373Z" transform="translate(-74.141 -381.665)" fill="#fff"/>
          <path id="패스_19726" data-name="패스 19726" d="M113.295,564.642a12.844,12.844,0,0,1-2.069-.167,4.508,4.508,0,0,1-4.035-3.892,20.778,20.778,0,0,1,.01-2.252.476.476,0,0,1,.874-.233,6.527,6.527,0,0,0,4.814,2.561c2.7.222,3.968-.962,4.485-1.687a1.655,1.655,0,0,0,.248-.549.476.476,0,0,1,.938.1l.1,3.089a.461.461,0,0,1,0,.051,2.545,2.545,0,0,1-1.025,1.828,7.24,7.24,0,0,1-4.335,1.146m-5.177-5.067c0,.32.009.641.024.961a3.608,3.608,0,0,0,3.239,3c2.264.375,4.591.05,5.66-.788a1.58,1.58,0,0,0,.66-1.127l-.047-1.516a5.906,5.906,0,0,1-4.844,1.507,7.715,7.715,0,0,1-4.693-2.035" transform="translate(-73.118 -380.642)"/>
          <path id="패스_19727" data-name="패스 19727" d="M123.963,549.334h-4.122a.477.477,0,1,1,0-.953h4.122a.477.477,0,1,1,0,.953" transform="translate(-81.442 -374.159)"/>
          <path id="패스_19728" data-name="패스 19728" d="M125.308,542.754h-4.122a.477.477,0,1,1,0-.953h4.122a.477.477,0,1,1,0,.953" transform="translate(-82.36 -369.669)"/>
          <path id="패스_19729" data-name="패스 19729" d="M162.534,327.551a1.8,1.8,0,0,0,1.672-2.074c-1.091-7.064-4.767-31.349-4.966-39.129-.234-9.143-6.128-47.427-6.128-47.427l-6.424-.454c.424-1.248.66-1.929.66-1.929l-23.4-1.362c-10.853,17.8-7.707,81.036-7.2,90.056a1.33,1.33,0,0,0,1.143,1.24,21.655,21.655,0,0,0,5.475.256,1.326,1.326,0,0,0,1.168-1.27c.443-12.911,6.233-35.395,11.867-54.523,4.874,18.841,15.681,49.306,17.971,55.7a1.8,1.8,0,0,0,1.73,1.192c2.166-.037,4.709-.171,6.426-.275" transform="translate(-79.106 -160.459)"/>
          <path id="패스_19730" data-name="패스 19730" d="M39.183,344.425H4.763a3.263,3.263,0,0,1-3.2-3.92L6.789,315.12a4.592,4.592,0,0,1,4.5-3.667H40.811Z" transform="translate(-1.023 -212.503)" fill="#99b9ff"/>
          <path id="패스_19731" data-name="패스 19731" d="M38.16,343.878H3.74a3.739,3.739,0,0,1-3.662-4.493L5.3,314a5.087,5.087,0,0,1,4.964-4.047H39.788a.477.477,0,0,1,.476.5l-1.628,32.972a.477.477,0,0,1-.476.453m-27.9-32.972a4.131,4.131,0,0,0-4.031,3.286L1.011,339.577a2.786,2.786,0,0,0,2.729,3.348H37.707l1.581-32.019Z" transform="translate(0 -211.48)"/>
          <path id="패스_19732" data-name="패스 19732" d="M112.629,344.425h-6.68a3.263,3.263,0,0,1-3.2-3.92l5.752-27.96a1.368,1.368,0,0,1,1.339-1.092h1.718a1.368,1.368,0,0,1,1.363,1.257l2.353,28.841a2.658,2.658,0,0,1-2.649,2.874" transform="translate(-70.062 -212.503)" fill="#5479f7"/>
          <path id="패스_19733" data-name="패스 19733" d="M111.607,343.878h-6.68a3.739,3.739,0,0,1-3.662-4.493l5.752-27.96a1.851,1.851,0,0,1,1.806-1.473h1.718a1.854,1.854,0,0,1,1.838,1.694l2.353,28.841a3.135,3.135,0,0,1-3.124,3.39m-2.784-32.972a.9.9,0,0,0-.873.711l-5.752,27.96a2.786,2.786,0,0,0,2.729,3.348h6.68a2.181,2.181,0,0,0,2.174-2.359l-2.353-28.841a.9.9,0,0,0-.888-.819Z" transform="translate(-69.04 -211.48)"/>
          <path id="패스_19734" data-name="패스 19734" d="M46.193,328.463H21.958a.477.477,0,1,1,0-.953H46.193a1.243,1.243,0,0,0,1.213-.959l2.375-10.029a.477.477,0,0,1,.928.22L48.334,326.77a2.192,2.192,0,0,1-2.141,1.693" transform="translate(-14.656 -215.711)"/>
          <path id="패스_19735" data-name="패스 19735" d="M55.252,353.4l-.755,3.045a1.143,1.143,0,0,1-1.112.879H48.048a.879.879,0,0,1-.847-1.114l.782-2.81Z" transform="translate(-32.183 -241.121)" fill="#fff"/>
          <path id="패스_19736" data-name="패스 19736" d="M52.362,356.773H47.024a1.355,1.355,0,0,1-1.305-1.718l.782-2.81a.477.477,0,0,1,.459-.349h7.269a.476.476,0,0,1,.463.591l-.755,3.045a1.612,1.612,0,0,1-1.574,1.241m-5.04-3.924-.685,2.461a.4.4,0,0,0,.387.51h5.338a.664.664,0,0,0,.648-.512l.609-2.459Z" transform="translate(-31.159 -240.097)"/>
          <path id="패스_19737" data-name="패스 19737" d="M72.267,289.475H60.5a1.059,1.059,0,0,0-1,.859l-.173,1.028a.707.707,0,0,0,.715.859H71.805a1.058,1.058,0,0,0,1-.859l.173-1.028a.707.707,0,0,0-.714-.859" transform="translate(-40.465 -197.508)" fill="#99b9ff"/>
          <path id="패스_19738" data-name="패스 19738" d="M111.737,347.864a.477.477,0,0,1-.236-.891l4.374-2.492V322.151a.477.477,0,0,1,.953,0v22.608a.477.477,0,0,1-.24.414l-4.614,2.629a.472.472,0,0,1-.235.063" transform="translate(-75.912 -219.477)" fill="#99b9ff"/>
          <path id="패스_19739" data-name="패스 19739" d="M160.732,47.841l.245-14.33,8.195,5.636.016,8.573a3.35,3.35,0,0,1-1.361,2.49,4.916,4.916,0,0,1-5.676-.093l-.4-.267a2.336,2.336,0,0,1-1.023-2.009" transform="translate(-109.666 -22.864)" fill="#fff"/>
          <path id="패스_19740" data-name="패스 19740" d="M164.157,50.53a5.911,5.911,0,0,1-3.3-1.042l-.4-.268a2.8,2.8,0,0,1-1.232-2.414l.245-14.326a.476.476,0,0,1,.747-.385l8.195,5.636a.475.475,0,0,1,.206.391l.017,8.573a3.825,3.825,0,0,1-1.569,2.885,4.773,4.773,0,0,1-2.916.951m-3.741-17.147-.23,13.442v.007a1.848,1.848,0,0,0,.814,1.6l.4.268a4.46,4.46,0,0,0,5.12.108,2.9,2.9,0,0,0,1.174-2.122l-.016-8.311Zm-.706,13.434h0Z" transform="translate(-108.643 -21.841)" fill="#c6c6c6"/>
          <path id="패스_19741" data-name="패스 19741" d="M165.872,1.668c-2.126-.452.243,2.164-7.346-1.363-3.022-1.4-1.97,2.521-2.755,2.158-2.9-1.338-3.694-1.673-5.229-1.512-1.017.107-3.375,1.722-3.247,3.09.419,4.465,2.5,3.621,3.246,7.573.523,2.776,1.144,3.692,2.145,4.239s2.016-.759,3.166-.239c1.49.674.784,3.313,2.132,4.659.85.849,3.021,1.515,6.834.332a1.342,1.342,0,0,0,.932-1.446c-.1-.827-.234-1.872-.444-2.86-1-4.707-2.441-5.958-1.695-7.023,1.143-1.632,4.342-.105,5.112-1.472.8-1.419.057-5.518-2.854-6.137" transform="translate(-100.496 0)"/>
          <path id="패스_19742" data-name="패스 19742" d="M178.64,22.643l.444,1.238a13.47,13.47,0,0,1,.505,1.785c.239,1.136.724,3.072.985,4.163.837,3.509,5.447.5,5.447.5l.418-.867.58-.139a.657.657,0,0,0,.3-.157.639.639,0,0,0,.137-.742,23.261,23.261,0,0,1-2.2-6.827,6.956,6.956,0,0,0-6.623,1.044" transform="translate(-121.886 -14.455)" fill="#fff"/>
          <path id="패스_19743" data-name="패스 19743" d="M178.116,21.724c.119.216.228.418.319.623.046.1.088.207.128.313l.15.428a16.091,16.091,0,0,1,.462,1.738c.254,1.128.536,2.261.812,3.4l.1.427A2.9,2.9,0,0,0,180.2,29a1.676,1.676,0,0,0,.343.567,1.523,1.523,0,0,0,1.219.4,6.991,6.991,0,0,0,3.016-1.1l-.171.194c.142-.288.28-.577.426-.863l.008-.015a.464.464,0,0,1,.308-.24,3.841,3.841,0,0,1,.559-.069c.144,0,.184,0,.255-.078a.269.269,0,0,0,.027-.254l-.227-.477q-.478-1.025-.909-2.073a17.562,17.562,0,0,1-1.243-4.407l.286.389a5.454,5.454,0,0,0-.755-.214,6.538,6.538,0,0,0-.806-.119,6.709,6.709,0,0,0-1.622.057,6.367,6.367,0,0,0-1.555.45,6.644,6.644,0,0,0-.727.365c-.12.064-.232.143-.348.214l-.043.028-.012.007a.033.033,0,0,1-.022,0,.544.544,0,0,0-.091-.039m-.914-.271a2.359,2.359,0,0,1,.263-.3c.05-.047.1-.091.155-.132l.077-.057.049-.032c.13-.085.256-.175.391-.252a7.645,7.645,0,0,1,.827-.435,7.355,7.355,0,0,1,1.8-.524,7.264,7.264,0,0,1,1.865-.048,7.492,7.492,0,0,1,.922.148,5.677,5.677,0,0,1,.921.282.465.465,0,0,1,.285.389,14.069,14.069,0,0,0,.374,2.128c.172.708.384,1.413.628,2.107s.517,1.382.824,2.054l.114.252.058.126.029.063a1.021,1.021,0,0,1,.04.1,1.009,1.009,0,0,1-.08.823,1.066,1.066,0,0,1-.281.335,1.334,1.334,0,0,1-.363.193,3.869,3.869,0,0,1-.53.192l.316-.254c-.133.292-.274.58-.41.87a.461.461,0,0,1-.171.194,10.138,10.138,0,0,1-1.644.843,5.938,5.938,0,0,1-1.852.449,3.016,3.016,0,0,1-1.039-.115,2.246,2.246,0,0,1-.956-.575,2.617,2.617,0,0,1-.571-.911,3.9,3.9,0,0,1-.148-.483l-.1-.424c-.273-1.134-.556-2.267-.809-3.419a15,15,0,0,0-.407-1.653l-.133-.4c-.059-.168-.115-.339-.168-.511-.106-.344-.195-.692-.273-1.026" transform="translate(-120.904 -13.401)"/>
          <path id="패스_19744" data-name="패스 19744" d="M173.494,33.741s-1.064-2.977-2.309-2.21.009,4.017,2.309,2.21" transform="translate(-116.465 -21.427)" fill="#fff"/>
          <path id="패스_19745" data-name="패스 19745" d="M194.228,34.35a1.721,1.721,0,0,1-.413-.052,1.134,1.134,0,0,1-.715-.714,3.577,3.577,0,0,1,.38-3.093,1.143,1.143,0,0,1,.72-.521,1.449,1.449,0,0,1,1.127.193c.485.3.681.881.6,1.771a2.831,2.831,0,0,1-.9,2.163,1.359,1.359,0,0,1-.8.253m-.15-.97a.468.468,0,0,0,.4-.058c.148-.106.412-.438.5-1.472.042-.469-.015-.788-.156-.877a.411.411,0,0,0-.516-.01,2.344,2.344,0,0,0-.231,2.417" transform="translate(-131.617 -20.42)"/>
          <path id="패스_19746" data-name="패스 19746" d="M182.212,30.453H182.2l-6.831-.177a.477.477,0,0,1-.464-.489.483.483,0,0,1,.489-.464l6.831.177a.476.476,0,0,1-.012.953" transform="translate(-119.336 -20.007)"/>
          <path id="패스_19747" data-name="패스 19747" d="M202.517,34.3a.477.477,0,0,1-.217-.9,2.383,2.383,0,0,0,.339-2.043.213.213,0,0,0-.132-.146,1.516,1.516,0,0,0-.936.221.477.477,0,0,1-.471-.829,2.4,2.4,0,0,1,1.722-.292,1.158,1.158,0,0,1,.7.693,3.292,3.292,0,0,1-.191,2.525c-.209.427-.438.68-.682.751a.476.476,0,0,1-.134.019" transform="translate(-137.045 -20.631)"/>
          <path id="패스_19748" data-name="패스 19748" d="M66.135,260.767c.156-.918.4-2.033.644-2.938.313-1.169-.036-7.45-.036-7.45l5.057-1.313s-1.083,5.349.7,6.508a8.927,8.927,0,0,1,3.93,6.174l-1.8-.009a2.575,2.575,0,0,0-2.018.941,11.545,11.545,0,0,0-.952,1.9l2.62.09s-.594,2.851-2.891,2.833a5.491,5.491,0,0,1-5.255-6.739" transform="translate(-45.046 -169.937)" fill="#fff"/>
          <path id="패스_19749" data-name="패스 19749" d="M70.393,266.959h-.026a6.36,6.36,0,0,1-4.55-2.2,6.1,6.1,0,0,1-1.17-5.1c.157-.925.4-2.039.653-2.982a50.59,50.59,0,0,0-.051-7.3.476.476,0,0,1,.356-.488l5.057-1.312a.477.477,0,0,1,.587.556c-.393,1.946-.608,5.3.49,6.014a9.34,9.34,0,0,1,4.145,6.53.476.476,0,0,1-.477.519l-1.8-.009a2.135,2.135,0,0,0-1.645.764,6.828,6.828,0,0,0-.611,1.152l1.924.066a.476.476,0,0,1,.45.573c-.232,1.114-1.228,3.212-3.335,3.212m-4.173-17.241c.076,1.476.287,6.135,0,7.21-.241.9-.484,2.011-.634,2.895a5.117,5.117,0,0,0,.961,4.327,5.434,5.434,0,0,0,3.828,1.856h.018a2.554,2.554,0,0,0,2.234-1.9l-2-.069a.476.476,0,0,1-.426-.654,11.266,11.266,0,0,1,1.024-2.026,3.034,3.034,0,0,1,2.375-1.117h.016l1.227.006a8.547,8.547,0,0,0-3.625-5.295c-1.622-1.056-1.28-4.647-1.033-6.26Zm-1.1,10.025h0Z" transform="translate(-44.028 -168.913)" fill="#c6c6c6"/>
          <path id="패스_19750" data-name="패스 19750" d="M134.822,80.944s7.057-3.989,21.326-1.688-8.285,39.582-8.285,39.582S129.3,89.228,134.822,80.944" transform="translate(-91.288 -53.588)" fill="#fff"/>
          <path id="패스_19751" data-name="패스 19751" d="M167.061,96.622l4.432,15.569-5.471,9.489-4.835-9.289,3.645-15.719-2.583-4.479,2.619-3.032,1.916-.051,2.309,3.214Z" transform="translate(-109.978 -60.8)" fill="#5479f7"/>
          <path id="패스_19752" data-name="패스 19752" d="M122.544,81.816C116.967,79,110.085,77.6,103.318,77.3c-.036,0-.122-.038-.109,0,4.047,10.167-4.14,30.879-4.14,30.879S89.694,87.133,90.4,78.088c0-.062-.123.021-.184.032-4.734.837-8.793,2.241-11.47,4.058l-.021-.047s-19.607,10.241-16.569,55.4l8.932-1.543s1.769-17.93,10.083-28.619a249.7,249.7,0,0,1-1.636,33.606.73.73,0,0,0,.714.791l16.559.292,2.387-7.719,3.175,7.817,17.63.29a.519.519,0,0,0,.525-.564c-.227-2.59-1.46-15.077-1.968-25.078,4.056,7.327,11.681,13.34,18.358,4.4,4.7-6.293-3.6-33.947-14.37-39.382" transform="translate(-42.189 -52.732)" fill="#91aaff"/>
          <path id="패스_19753" data-name="패스 19753" d="M118.994,141.9h-.017l-17.629-.29a.478.478,0,0,1-.434-.3l-2.673-6.58-1.992,6.444a.5.5,0,0,1-.464.336l-16.559-.293a1.205,1.205,0,0,1-1.181-1.306c.021-.256.071-.712.142-1.354a246.54,246.54,0,0,0,1.513-30.8c-7.426,10.551-9.136,27.076-9.153,27.248a.476.476,0,0,1-.393.423l-8.932,1.544a.477.477,0,0,1-.557-.437c-1.577-23.442,3.047-37.354,7.2-44.9,4.539-8.236,9.415-10.85,9.62-10.957a.484.484,0,0,1,.163-.051,31.306,31.306,0,0,1,11.433-4,.561.561,0,0,1,.572.026.515.515,0,0,1,.2.443c-.6,7.66,6.281,24.376,8.163,28.78,1.6-4.4,7.133-20.878,3.73-29.429a.49.49,0,0,1,.609-.646,48.277,48.277,0,0,1,19.383,4.56c6.928,3.495,12.532,15.489,14.808,25.155,1.658,7.043,1.56,12.487-.27,14.938-2.457,3.291-5.214,4.857-8.193,4.655-3.443-.234-7.082-2.976-9.966-7.439.467,8.078,1.318,17.254,1.7,21.347.073.792.13,1.4.164,1.791a1,1,0,0,1-.991,1.082m-17.316-1.238,17.315.285a.044.044,0,0,0,.032-.013.041.041,0,0,0,.011-.032c-.034-.387-.091-1-.164-1.786-.411-4.428-1.373-14.8-1.806-23.309a.476.476,0,0,1,.893-.255c2.854,5.155,6.665,8.377,10.194,8.617,2.635.18,5.114-1.259,7.365-4.275,1.636-2.191,1.675-7.48.105-14.149-2.3-9.758-7.949-21.315-14.309-24.522a46.914,46.914,0,0,0-18.426-4.431c3.478,10.412-4.061,29.709-4.39,30.543a.476.476,0,0,1-.433.3.464.464,0,0,1-.445-.282c-.376-.845-9.025-20.375-8.743-29.709A29.86,29.86,0,0,0,78,81.552a.477.477,0,0,1-.242.082c-.9.546-5.171,3.392-9.1,10.554-4.041,7.37-8.53,20.931-7.076,43.76l8.058-1.392c.31-2.609,2.492-18.669,10.141-28.5a.476.476,0,0,1,.852.284,248.034,248.034,0,0,1-1.5,32.326c-.07.628-.119,1.075-.14,1.326a.253.253,0,0,0,.065.193.25.25,0,0,0,.182.083l16.2.285,2.281-7.377a.478.478,0,0,1,.435-.336.473.473,0,0,1,.462.3Zm.647-64.852h0Z" transform="translate(-41.176 -51.712)" fill="#3757c4"/>
          <path id="패스_19754" data-name="패스 19754" d="M151.11,84.254c-1.819-3.22-3.307-7.375-1.294-10l2.755-2.976s.221,5.267,4.552,5.685Z" transform="translate(-101.562 -48.635)" fill="#fff"/>
          <path id="패스_19755" data-name="패스 19755" d="M150.076,83.708l-.042,0a.477.477,0,0,1-.373-.241c-1.805-3.2-3.489-7.615-1.257-10.521.009-.012.018-.023.028-.034l2.755-2.976a.477.477,0,0,1,.826.3c.009.2.26,4.859,4.122,5.231a.477.477,0,0,1,.322.778l-6.014,7.287a.476.476,0,0,1-.367.173m-.929-10.166c-1.835,2.417-.306,6.355,1.009,8.843l5.045-6.113c-2.771-.713-3.694-3.433-4-4.952Z" transform="translate(-100.527 -47.613)" fill="#c6c6c6"/>
          <path id="패스_19756" data-name="패스 19756" d="M177.208,77.671c3.083-.239,3.432-5.363,3.432-5.363s3.167,2.139,3.8,5.3a11.6,11.6,0,0,1-.954,7.761Z" transform="translate(-120.908 -49.336)" fill="#fff"/>
          <path id="패스_19757" data-name="패스 19757" d="M182.46,84.819a.477.477,0,0,1-.369-.175l-6.274-7.7a.477.477,0,0,1,.333-.776c2.642-.2,2.99-4.872,2.993-4.92a.477.477,0,0,1,.742-.362c.136.092,3.337,2.287,4,5.6a11.987,11.987,0,0,1-1.013,8.1.476.476,0,0,1-.374.23h-.034m-5.414-7.87,5.31,6.512a11.757,11.757,0,0,0,.59-6.787,8.629,8.629,0,0,0-2.961-4.5c-.232,1.394-.931,4.051-2.939,4.772" transform="translate(-119.885 -48.312)" fill="#c6c6c6"/>
          <path id="패스_19758" data-name="패스 19758" d="M237.083,194.781a.477.477,0,0,1-.452-.325c-.219-.651-.394-1.144-.539-1.553a17.726,17.726,0,0,1-.567-1.776.477.477,0,0,1,.925-.229,17.078,17.078,0,0,0,.54,1.686c.147.413.324.911.545,1.569a.476.476,0,0,1-.3.6.468.468,0,0,1-.152.025" transform="translate(-160.688 -130.002)" fill="#3757c4"/>
          <path id="패스_19759" data-name="패스 19759" d="M253.988,124.809s-1.772-4.683-1.783-7.3c-.009-2.233-2.125-1.354-2.478.544a11.354,11.354,0,0,0,1.457,7.5Z" transform="translate(-170.28 -79.275)" fill="#fff"/>
          <path id="패스_19760" data-name="패스 19760" d="M249.945,125.086l-.188-.291a11.738,11.738,0,0,1-1.525-7.851c.243-1.307,1.259-2.336,2.228-2.251.279.025,1.189.229,1.2,1.792.01,2.5,1.734,7.085,1.752,7.131l.186.492Zm.4-9.445c-.37,0-1.005.566-1.175,1.477a10.837,10.837,0,0,0,1.217,6.863l1.95-.522a26.479,26.479,0,0,1-1.633-6.97c0-.4-.089-.825-.328-.847h-.031" transform="translate(-169.254 -78.252)" fill="#c6c6c6"/>
          <path id="패스_19761" data-name="패스 19761" d="M243.628,138.387c.429.8,2.131,3.009,1.254,5.766-.559,1.757.357,3.786,1.1,5.027a2.452,2.452,0,0,1-.137,2.711c-.932,1.256-2.464,2.5-4.092.41a15.762,15.762,0,0,1-2.613-4.648,2.168,2.168,0,0,0-1.314-1.343,4.4,4.4,0,0,1-2.758-2.464c-.877-2.507-.3-6.189,1.379-6.713,2.006-.627,6.309-.376,7.187,1.254" transform="translate(-160.105 -93.35)" fill="#fff"/>
          <path id="패스_19762" data-name="패스 19762" d="M242.545,152.868a2.846,2.846,0,0,1-2.2-1.306,16.219,16.219,0,0,1-2.689-4.792,1.692,1.692,0,0,0-1.029-1.046,4.7,4.7,0,0,1-3.04-2.753,8.341,8.341,0,0,1,.224-5.924,2.579,2.579,0,0,1,1.463-1.4c2.09-.653,6.691-.481,7.748,1.482.051.094.121.209.2.344a6.878,6.878,0,0,1,1.086,5.792c-.518,1.629.436,3.6,1.051,4.638a2.918,2.918,0,0,1-.164,3.239,3.513,3.513,0,0,1-2.626,1.725Zm-4.621-16.61a8.365,8.365,0,0,0-2.368.3,1.734,1.734,0,0,0-.9.919,7.416,7.416,0,0,0-.176,5.181,3.808,3.808,0,0,0,2.475,2.175,2.641,2.641,0,0,1,1.6,1.64,15.265,15.265,0,0,0,2.537,4.505,1.978,1.978,0,0,0,1.462.938c.731-.009,1.421-.734,1.871-1.34a1.968,1.968,0,0,0,.111-2.184c-.851-1.43-1.74-3.53-1.14-5.415a5.95,5.95,0,0,0-.993-5.011c-.091-.151-.169-.28-.226-.385-.485-.9-2.444-1.322-4.257-1.322" transform="translate(-159.078 -92.317)" fill="#c6c6c6"/>
        </g>
      </g>
    </g>
  </g>
</svg>
