<svg xmlns="http://www.w3.org/2000/svg" xmlns:xlink="http://www.w3.org/1999/xlink" width="120" height="190" viewBox="0 0 120 190">
  <defs>
    <clipPath id="clip-path">
      <rect id="사각형_353245" data-name="사각형 353245" width="120" height="190" transform="translate(1718 1923)" fill="#fff" stroke="#707070" stroke-width="1"/>
    </clipPath>
  </defs>
  <g id="마스크_그룹_472088" data-name="마스크 그룹 472088" transform="translate(-1718 -1923)" clip-path="url(#clip-path)">
    <g id="그룹_472475" data-name="그룹 472475" transform="translate(1740.008 1930.214)">
      <g id="그룹_24923" data-name="그룹 24923" transform="translate(0.991 -4.213)">
        <g id="그룹_24930" data-name="그룹 24930" transform="translate(6.97 67.339)">
          <g id="그룹_24925" data-name="그룹 24925" transform="translate(0 92.618)">
            <g id="그룹_24923-2" data-name="그룹 24923" transform="translate(4.737)">
              <path id="패스_19798" data-name="패스 19798" d="M3571.449,1352.553l-1.662,11.667-4.252.016-.2-11.474Z" transform="translate(-3564.863 -1352.08)" fill="#fff"/>
              <path id="패스_19799" data-name="패스 19799" d="M3564.509,1363.682a.473.473,0,0,1-.473-.465l-.2-11.474a.473.473,0,0,1,.457-.481l6.114-.208a.468.468,0,0,1,.369.157.479.479,0,0,1,.117.383l-1.662,11.666a.474.474,0,0,1-.467.407l-4.251.016Zm.281-11.49.185,10.542,3.376-.013,1.524-10.7Z" transform="translate(-3563.836 -1351.052)"/>
            </g>
            <g id="그룹_24924" data-name="그룹 24924" transform="translate(0 8.861)">
              <path id="패스_19800" data-name="패스 19800" d="M3559.651,1394.592a39.358,39.358,0,0,1-7.473-.042,2.051,2.051,0,0,1-1.833-2.381c.515-3.167,1.954-8.752,4.222-11.315l1.12,1.6.665-1.649c.107-.178,2.924-.3,2.984.039l.171,1.611,1.6-1.793-.088,5.886a8.935,8.935,0,0,0,.183,1.936l.42,2.035a3.871,3.871,0,0,1-.916,3.435A1.852,1.852,0,0,1,3559.651,1394.592Z" transform="translate(-3549.845 -1380.159)" fill="#fff"/>
              <path id="패스_19801" data-name="패스 19801" d="M3555.395,1394.205c-1.2,0-2.622-.054-4.284-.2a2.479,2.479,0,0,1-1.757-.958,2.553,2.553,0,0,1-.5-1.97c.136-.835,1.412-8.249,4.335-11.552a.474.474,0,0,1,.742.042l.619.883.339-.842a.436.436,0,0,1,.033-.067c.35-.583,2.99-.363,3.164-.33.154.028.619.114.692.53a.21.21,0,0,1,0,.033l.058.549.889-1a.473.473,0,0,1,.826.322l-.088,5.886a8.418,8.418,0,0,0,.173,1.833l.42,2.035a4.339,4.339,0,0,1-1.034,3.854,2.277,2.277,0,0,1-1.35.79A30.963,30.963,0,0,1,3555.395,1394.205Zm-1.882-13.581c-2.008,2.7-3.278,7.848-3.727,10.606a1.6,1.6,0,0,0,.314,1.237,1.544,1.544,0,0,0,1.093.6,38.7,38.7,0,0,0,7.382.043h0a1.444,1.444,0,0,0,.761-.5,3.4,3.4,0,0,0,.8-3.015l-.421-2.035a9.373,9.373,0,0,1-.192-2.039l.069-4.617-.755.846a.473.473,0,0,1-.823-.265l-.144-1.354a10.044,10.044,0,0,0-2.182.031l-.585,1.45a.473.473,0,0,1-.826.1Z" transform="translate(-3548.819 -1379.144)"/>
            </g>
            <path id="패스_19802" data-name="패스 19802" d="M3560.138,1417.431a24.751,24.751,0,0,1-4.276-.38.473.473,0,0,1,.164-.932,20.987,20.987,0,0,0,7.017.142.473.473,0,0,1,.188.928A16.917,16.917,0,0,1,3560.138,1417.431Z" transform="translate(-3553.372 -1395.59)"/>
            <path id="패스_19803" data-name="패스 19803" d="M3565.179,1404.056h-3.857a.473.473,0,0,1,0-.946h3.857a.473.473,0,1,1,0,.946Z" transform="translate(-3557.054 -1386.689)"/>
          </g>
          <g id="그룹_24928" data-name="그룹 24928" transform="translate(40.394 92.512)">
            <g id="그룹_24926" data-name="그룹 24926" transform="translate(0.973)">
              <path id="패스_19804" data-name="패스 19804" d="M3681.465,1353.363l1.5,13.6,5.72,1.2-.349-15.944Z" transform="translate(-3680.992 -1351.741)" fill="#fff"/>
              <path id="패스_19805" data-name="패스 19805" d="M3687.654,1367.6a.462.462,0,0,1-.1-.01l-5.719-1.2a.473.473,0,0,1-.373-.412l-1.5-13.6a.473.473,0,0,1,.393-.519l6.867-1.149a.473.473,0,0,1,.551.457l.348,15.944a.473.473,0,0,1-.473.483Zm-5.286-2.064,4.8,1.005-.324-14.8-5.887.984Z" transform="translate(-3679.965 -1350.714)"/>
            </g>
            <g id="그룹_24927" data-name="그룹 24927" transform="translate(0 12.251)">
              <path id="패스_19806" data-name="패스 19806" d="M3678.429,1400.03c-.126-2.383-.129-6.771,1.322-8.886l4.576,1.629v-.977a.57.57,0,0,1,.511-.591l2.552-.146a5.545,5.545,0,0,1,2.77.57c2.565,1.261,10.37,4.5,11.452,8.134a1.728,1.728,0,0,1-1.639,2.178c-2.568.073-8.744.154-19.827-.225A1.781,1.781,0,0,1,3678.429,1400.03Z" transform="translate(-3677.905 -1390.577)" fill="#fff"/>
              <path id="패스_19807" data-name="패스 19807" d="M3693.828,1401.45c-3.407,0-8.221-.065-14.724-.287a2.241,2.241,0,0,1-2.175-2.133c-.131-2.473-.122-6.955,1.4-9.179a.474.474,0,0,1,.549-.178l3.944,1.4v-.307a1.043,1.043,0,0,1,.957-1.063l2.552-.146a6.048,6.048,0,0,1,3.007.618c.305.15.686.329,1.12.533,3.342,1.568,9.563,4.486,10.576,7.891a2.117,2.117,0,0,1-.324,1.857,2.259,2.259,0,0,1-1.754.929C3697.859,1401.419,3696.178,1401.45,3693.828,1401.45Zm-15.953-2.471a1.3,1.3,0,0,0,1.262,1.238c10.959.374,17.107.3,19.8.224a1.309,1.309,0,0,0,1.015-.538,1.179,1.179,0,0,0,.184-1.032c-.892-3-7.092-5.906-10.072-7.3-.442-.207-.827-.388-1.136-.54a5.086,5.086,0,0,0-2.535-.522l-2.552.146c-.023,0-.065.044-.065.119v.977a.473.473,0,0,1-.632.446l-4.215-1.5C3678.06,1392.255,3677.678,1395.235,3677.875,1398.979Z" transform="translate(-3676.879 -1389.551)"/>
            </g>
            <path id="패스_19808" data-name="패스 19808" d="M3697.1,1416.547a109.52,109.52,0,0,1-12.437-.7.473.473,0,0,1,.109-.94,105.3,105.3,0,0,0,17.859.535.473.473,0,0,1,.072.944C3702.659,1416.389,3700.507,1416.547,3697.1,1416.547Z" transform="translate(-3681.92 -1394.656)"/>
            <path id="패스_19809" data-name="패스 19809" d="M3709.915,1398.842a.472.472,0,0,1-.276-.089l-4.405-3.168a.473.473,0,1,1,.553-.768l4.4,3.168a.473.473,0,0,1-.276.857Z" transform="translate(-3696.155 -1380.844)"/>
          </g>
          <g id="그룹_24929" data-name="그룹 24929" transform="translate(2.078 0)">
            <path id="패스_19810" data-name="패스 19810" d="M3597.98,1064.363s8.2,56.243,6.452,93.783l-2.558.256a27.653,27.653,0,0,1-4.139.1l-2.426-.122s-9.778-57.025-14.66-66.495c0,0-13.277,50.712-13.789,64.45,0,0-5.9.593-8.254-.253-1.263-13.259-1.628-26.983-1.691-35.6-.181-24.659,2.176-35.86,3.467-41.173,1.186-4.879,2.459-8.845,3.389-11.527l3.1-8.855Z" transform="translate(-3556.433 -1058.457)" fill="#5479f7"/>
            <path id="패스_19811" data-name="패스 19811" d="M3598.093,1157.984q-.706,0-1.409-.035l-2.426-.122a.472.472,0,0,1-.443-.392c-.094-.549-9.126-53.024-14.072-65.16-2.068,8.007-12.979,50.746-13.437,63.053a.472.472,0,0,1-.426.453c-.245.025-6.036.594-8.461-.279a.473.473,0,0,1-.311-.4c-1.351-14.17-1.641-28.411-1.693-35.64-.173-23.467,1.9-34.8,3.48-41.289.948-3.9,2.093-7.793,3.4-11.569l3.1-8.857a.472.472,0,0,1,.528-.31l31.1,5.433a.472.472,0,0,1,.386.4c.082.562,8.186,56.718,6.456,93.873a.472.472,0,0,1-.426.449l-2.558.256C3599.967,1157.937,3599.029,1157.984,3598.093,1157.984Zm-3.409-1.084,2.047.1a27.182,27.182,0,0,0,4.069-.1l2.151-.214c1.58-35.555-5.745-88.214-6.418-92.946l-30.37-5.3-2.972,8.476c-1.3,3.747-2.434,7.611-3.376,11.482-1.564,6.437-3.625,17.7-3.453,41.058.052,7.16.338,21.214,1.66,35.246,2,.559,6.063.283,7.358.175.749-14.213,13.654-63.632,13.785-64.135a.473.473,0,0,1,.878-.1C3584.75,1099.772,3593.759,1151.531,3594.684,1156.9Z" transform="translate(-3555.406 -1057.43)" fill="#3757c4"/>
          </g>
        </g>
        <g id="그룹_24933" data-name="그룹 24933" transform="translate(0 25.212)">
          <path id="패스_19815" data-name="패스 19815" d="M3576.658,925.1c-5.423-.612-17-1.708-24.961-.98a16.093,16.093,0,0,0-7.7,3.265c-5.384,4.647-15.543,14.879-17.24,27.159a3.476,3.476,0,0,0,2.694,3.865l9.385,2.08s-3.741,14.746-3.44,17.292,8.054,6.88,17.751,3.325c7.56-2.772,18.262-4.976,25.056-2.585.064.023.715,5.243.781,5.253,2.182.317,4.38-.532,4.328-3.6l-1.034-15.923,12.437-1.643,1.112-.37a6.183,6.183,0,0,0,3.8-8.125c-2.922-7.438-7.33-19.478-15.5-26.128A17.11,17.11,0,0,0,3576.658,925.1Z" transform="translate(-3526.724 -923.876)"/>
          <path id="패스_19816" data-name="패스 19816" d="M3663.115,1016.284h19.437a1.836,1.836,0,0,0,1.782-1.395l6.725-27.114a1.837,1.837,0,0,0-1.782-2.279H3669.84a1.837,1.837,0,0,0-1.783,1.395l-6.725,27.115A1.837,1.837,0,0,0,3663.115,1016.284Z" transform="translate(-3618.834 -966.059)" fill="#99b9ff"/>
          <g id="그룹_24931" data-name="그룹 24931" transform="translate(57.506 31.977)">
            <path id="패스_19817" data-name="패스 19817" d="M3721.611,1027.6l-.653,2.736-2.349-.782a18.3,18.3,0,0,1-3.7-1.714l-1.348-.817a1.851,1.851,0,0,0-2.7.977c-.831,2.359-.667,6.311,7.8,8.794,4.672,1.37,6.009-4.614,5.4-7.939a2.792,2.792,0,0,0-1-1.736A.9.9,0,0,0,3721.611,1027.6Z" transform="translate(-3710.053 -1026.278)" fill="#fff"/>
            <path id="패스_19818" data-name="패스 19818" d="M3718.921,1036.434a5.079,5.079,0,0,1-1.429-.218c-4.135-1.213-6.79-2.918-7.891-5.067a5.38,5.38,0,0,1-.219-4.338,2.324,2.324,0,0,1,3.4-1.225l1.347.818a17.866,17.866,0,0,0,3.609,1.669l1.86.62.534-2.234v-.007a1.377,1.377,0,0,1,2.194-.734,3.249,3.249,0,0,1,1.17,2.021c.449,2.466-.095,6-1.987,7.707A3.771,3.771,0,0,1,3718.921,1036.434Zm-7.343-10.237a1.367,1.367,0,0,0-.462.08,1.383,1.383,0,0,0-.842.848,4.4,4.4,0,0,0,.169,3.592c.977,1.909,3.438,3.453,7.315,4.59a3.084,3.084,0,0,0,3.116-.566c1.577-1.419,2.1-4.589,1.689-6.834a2.328,2.328,0,0,0-.831-1.451.43.43,0,0,0-.685.227l-.652,2.732a.473.473,0,0,1-.61.339l-2.35-.782a18.808,18.808,0,0,1-3.8-1.758l-1.348-.818A1.368,1.368,0,0,0,3711.579,1026.2Z" transform="translate(-3709.031 -1025.251)" fill="#c6c6c6"/>
          </g>
          <g id="그룹_24932" data-name="그룹 24932" transform="translate(0.756 15.24)">
            <path id="패스_19819" data-name="패스 19819" d="M3553.522,975.577a14.912,14.912,0,0,1-3.288,2.538c-4.081,2.324-13.828,7.949-16.253,10.021-3.089,2.639-4.567,3.624-2.085,10.414,4.048,11.069,22.919-17.345,22.919-17.345s5.543,1,6.787-3.855c0,0,2.888.542,4.093.021a1.129,1.129,0,0,0-.349-2.14l-7.972-1.486a3.365,3.365,0,0,0-3,.962Z" transform="translate(-3530.164 -973.219)" fill="#fff"/>
            <path id="패스_19820" data-name="패스 19820" d="M3533.849,1000.554a3.41,3.41,0,0,1-.4-.023c-1.384-.164-2.4-1.121-3.035-2.846-2.425-6.632-1.23-7.995,1.95-10.7l.272-.232c2.455-2.1,12.235-7.742,16.326-10.072a14.465,14.465,0,0,0,3.184-2.457l.851-.871a3.835,3.835,0,0,1,3.422-1.1l7.977,1.487a1.558,1.558,0,0,1,1.36,1.35,1.593,1.593,0,0,1-.91,1.689,8.906,8.906,0,0,1-3.944.082c-1.328,4.095-5.683,3.95-6.894,3.824C3552.385,983.086,3540.4,1000.554,3533.849,1000.554Zm18.969-25.673a15.377,15.377,0,0,1-3.392,2.619c-4.068,2.316-13.787,7.924-16.18,9.969l-.273.233c-2.807,2.391-3.97,3.381-1.675,9.659.5,1.381,1.244,2.111,2.257,2.231a2.753,2.753,0,0,0,.321.018c5.257,0,15.807-14.13,19.5-19.694a.473.473,0,0,1,.477-.2c.208.037,5.126.859,6.245-3.506a.473.473,0,0,1,.546-.348,9.347,9.347,0,0,0,3.817.051.651.651,0,0,0,.349-.693.61.61,0,0,0-.575-.543l-7.994-1.49a2.893,2.893,0,0,0-2.576.827Z" transform="translate(-3529.121 -972.191)" fill="#c6c6c6"/>
          </g>
        </g>
        <g id="그룹_24936" data-name="그룹 24936" transform="translate(28.5)">
          <g id="그룹_24934" data-name="그룹 24934" transform="translate(0 12.111)">
            <path id="패스_19821" data-name="패스 19821" d="M3632.192,887.266l.6,8.3a2.65,2.65,0,0,0,1.962,2.244l2.917.76-1.892,1.441a11.737,11.737,0,0,1-14.2.013l-2.994-2.271,3.623-.809a2.649,2.649,0,0,0,2.03-2.116l1.6-10.984Z" transform="translate(-3618.104 -883.371)" fill="#fff"/>
            <path id="패스_19822" data-name="패스 19822" d="M3627.638,901.848a12.2,12.2,0,0,1-7.38-2.473l-2.994-2.271a.473.473,0,0,1,.183-.839l3.623-.809a2.174,2.174,0,0,0,1.668-1.738l1.6-10.968a.474.474,0,0,1,.693-.349l6.362,3.422a.473.473,0,0,1,.248.383l.6,8.3a2.159,2.159,0,0,0,1.61,1.82l2.916.76a.473.473,0,0,1,.167.834l-1.892,1.441A12.2,12.2,0,0,1,3627.638,901.848Zm-8.989-4.882,2.181,1.654a11.3,11.3,0,0,0,13.632-.012l1.118-.852-1.975-.515a3.105,3.105,0,0,1-2.312-2.644l-.581-8.065-5.538-2.979-1.5,10.316a3.121,3.121,0,0,1-2.4,2.51Z" transform="translate(-3617.077 -882.344)" fill="#c6c6c6"/>
          </g>
          <path id="패스_19823" data-name="패스 19823" d="M3653.26,848.4c-2-1.056-.389,2.233-6.953-3.448-2.613-2.262-2.708,1.961-3.387,1.376-2.51-2.16-2.422-2.09-4.007-2.365-1.049-.182-2.452,1.265-2.868,2.634-.55,1.807.651,2.889.241,7.052-.288,2.924-1.208,4.36-.365,5.191s2.238-.187,3.239.66c1.293,1.1-.183,3.534.772,5.263.6,1.09,2.58,2.372,6.742,2.272a1.411,1.411,0,0,0,1.355-1.181c.141-.856.313-1.938.392-2.985.372-4.991-.7-6.65.356-7.5,1.621-1.307,4.377,1.128,5.546-.021C3655.538,854.155,3655.992,849.847,3653.26,848.4Z" transform="translate(-3629.739 -843.949)"/>
          <g id="그룹_24935" data-name="그룹 24935" transform="translate(12.955 6.248)">
            <path id="패스_19824" data-name="패스 19824" d="M3659.811,865.8l.083,1.364a14,14,0,0,1-.016,1.928c-.093,1.2-.239,3.276-.232,4.442.011,1.713,5.305,2.047,5.305,2.047l.672-.747.621.026a.693.693,0,0,0,.349-.07.67.67,0,0,0,.354-.7,24.056,24.056,0,0,1-.2-7.45A7.243,7.243,0,0,0,3659.811,865.8Z" transform="translate(-3659.173 -864.794)" fill="#fff"/>
            <path id="패스_19825" data-name="패스 19825" d="M3663.924,875.013h-.03c-.957-.06-5.736-.466-5.748-2.517-.008-1.2.142-3.321.232-4.481a13.633,13.633,0,0,0,.015-1.863l-.083-1.364a.473.473,0,0,1,.3-.469,7.662,7.662,0,0,1,7.4.91.473.473,0,0,1,.167.454,23.853,23.853,0,0,0,.206,7.286,1.143,1.143,0,0,1-.6,1.2,1.171,1.171,0,0,1-.588.124l-.4-.017-.523.582A.473.473,0,0,1,3663.924,875.013Zm-4.647-9.93.062,1.011a14.485,14.485,0,0,1-.016,1.993c-.089,1.145-.237,3.24-.23,4.4.006.8,2.623,1.4,4.635,1.562l.517-.575a.473.473,0,0,1,.373-.156l.621.026a.237.237,0,0,0,.111-.017.2.2,0,0,0,.107-.206,25.033,25.033,0,0,1-.254-7.317A6.741,6.741,0,0,0,3659.277,865.083Z" transform="translate(-3658.147 -863.756)"/>
          </g>
          <path id="패스_19826" data-name="패스 19826" d="M3651.727,873.963s-.194-3.279-1.665-2.865S3648.9,875.116,3651.727,873.963Z" transform="translate(-3639.065 -862.51)" fill="#fff"/>
        </g>
      </g>
    </g>
  </g>
</svg>
