<?xml version="1.0" encoding="UTF-8"?>
<svg id="Layer_1" data-name="Layer 1" xmlns="http://www.w3.org/2000/svg" viewBox="0 0 170 170">
  <defs>
    <style>
      .cls-1 {
        fill: #fff;
      }
    </style>
  </defs>
  <g>
    <path class="cls-1" d="m29.9,82.56c-1.87-.88-3.4-1.58-3.4-3.01,0-1.09.87-1.89,2.6-1.89.64,0,1.15.08,1.69.17.28.05.58.09.83.09,1.51,0,2.36-.9,2.93-2.61l.23-.7c-.24-.1-2.71-1.18-5.92-1.18-5.11,0-7.81,3.28-7.81,6.68,0,1.72.54,2.96,1.38,3.94,1.08,1.26,2.63,2.08,4.07,2.79,2.11,1.03,4.01,1.8,4.01,3.33,0,1.36-1.4,2.13-3.28,2.13-2.58,0-4.82-1.47-5.11-1.65l-2.12,3.96c.38.21,3.1,1.94,7.57,1.94,4.77,0,8.38-2.73,8.38-6.94s-3.35-5.74-6.06-7.05Z"/>
    <path class="cls-1" d="m48.56,84.52l8.65-10.61h-6.16l-6.9,9.15h-.1v-9.15h-5.08v22.47h.3c2.2,0,4.81-1.02,4.81-4.69v-5.16h.1l7.04,9.57h6.47l-9.12-11.59Z"/>
  </g>
  <path class="cls-1" d="m145.91,83.67c-2.67,0-4.05,1.76-4.26,2.03-.67-1.27-1.92-2.03-3.54-2.03-2.36,0-3.69,1.37-3.91,1.59-.1-.37-.58-1.36-2.1-1.36-.44,0-1.08.14-1.14.15.06.29.35,1.68.35,3.6v8.46h3.1v-8.62c.06-.05,1.22-1.23,2.61-1.23s2.09,1.04,2.09,2.46v7.39h3.11v-8.63c.06-.06,1.2-1.22,2.61-1.22s2.07,1.04,2.07,2.46v7.39h3.12v-7.87c0-2.76-1.58-4.56-4.09-4.56Z"/>
  <path class="cls-1" d="m111.95,93.87c-2.1,0-3.6-1.66-3.6-3.84,0-2.42,1.71-3.86,3.6-3.86,1.02,0,1.45.31,2.13.31.73,0,1.11-.35,1.47-1.05.2-.39.31-.61.31-.61-.15-.1-1.72-1.16-4.38-1.16-3.9,0-6.24,2.8-6.24,6.37,0,3.9,2.67,6.34,6.24,6.34,2.59,0,4.15-1.06,4.43-1.25l-1.07-2.12c-.24.15-1.34.87-2.89.87Z"/>
  <path class="cls-1" d="m75.6,88.68c0-1.39.97-2.68,2.34-2.68,1.53,0,2.37,1.33,2.4,2.68h-4.74Zm2.39-5.01c-2.97,0-5.47,2.41-5.47,6.37s2.43,6.34,6.06,6.34c2.88,0,4.38-1.26,4.56-1.38,0,0-.28-.46-.36-.58-.41-.66-.87-.88-1.38-.88-1.02,0-1.15.42-2.53.42-2.38,0-3.2-1.85-3.25-3.09h7.95v-.92c0-3.79-2.18-6.29-5.57-6.29"/>
  <path class="cls-1" d="m88.86,92.68v-12.67c0-1.43-.95-2.54-2.44-2.54h-.66v16.45c0,1.51.94,2.45,2.57,2.45,2.01,0,2.62-1.43,2.62-2.78-.08.05-.51.22-.94.22-.72,0-1.14-.42-1.14-1.14Z"/>
  <path class="cls-1" d="m68.14,92.25v-6.02h2.59l.9-2.33h-3.49v-3.64s-.28,0-.29,0c-1.38,0-2.81.59-2.81,3.62v.03h-2.29v2.33h2.29v7.09c0,2.01,1.19,3.06,2.87,3.06,1.36,0,3.12-.41,3.12-3.11-.1.06-.76.49-1.49.49-1.01,0-1.41-.61-1.41-1.5Z"/>
  <path class="cls-1" d="m95.04,88.68c0-1.39.97-2.68,2.34-2.68,1.53,0,2.37,1.33,2.4,2.68h-4.74Zm2.39-5.01c-2.97,0-5.47,2.41-5.47,6.37s2.43,6.34,6.06,6.34c2.88,0,4.37-1.26,4.55-1.38,0,0-.28-.46-.36-.58-.4-.66-.87-.88-1.38-.88-1.02,0-1.15.42-2.54.42-2.37,0-3.2-1.85-3.25-3.09h7.94v-.92c0-3.79-2.18-6.29-5.57-6.29"/>
  <path class="cls-1" d="m123.01,93.99c1.9,0,3-1.63,3-3.96s-1.07-3.98-3-3.98-2.99,1.62-2.99,3.98,1.07,3.96,2.99,3.96Zm0,2.38c-3.79,0-6.07-2.5-6.07-6.35s2.25-6.36,6.07-6.36,6.08,2.53,6.08,6.36c0,3.62-2.08,6.35-6.08,6.35"/>
</svg>