<?xml version="1.0" encoding="UTF-8"?>
<svg id="Layer_1" data-name="Layer 1" xmlns="http://www.w3.org/2000/svg" viewBox="0 0 170 170">
  <defs>
    <style>
      .cls-1 {
        fill: #fff;
      }
    </style>
  </defs>
  <g>
    <path class="cls-1" d="m73.33,89.83v-7.98h-4.15v-4.19h4.15v-5.06l5.08-1.37v6.41h6.34v4.19h-6.34v7.91c0,2.1,1.13,3.33,3.08,3.33,1.11,0,1.93-.22,2.79-.86l1.82,3.79c-1.35,1.04-3.12,1.53-5.05,1.53-4.94.02-7.72-2.77-7.72-7.71Z"/>
    <path class="cls-1" d="m86.35,87.33c0-5.81,4.5-10.15,10.57-10.15s10.57,4.35,10.57,10.15-4.5,10.17-10.57,10.17-10.57-4.35-10.57-10.17Zm10.59,5.63c3.1,0,5.43-2.4,5.43-5.61s-2.33-5.63-5.43-5.63-5.43,2.4-5.43,5.61,2.31,5.63,5.43,5.63Z"/>
    <path class="cls-1" d="m108.85,92.43l5.05-1.37c.33,1.57,1.79,2.46,4.14,2.46,1.93,0,3.33-.87,3.33-2.02,0-.86-.98-1.46-2.5-1.79l-3.77-.8c-3.57-.77-5.78-2.66-5.78-5.39,0-3.81,3.3-6.36,8.13-6.36,4.32,0,7.6,1.97,8.47,5.14l-4.72,1.31c-.31-1.51-1.8-2.51-3.88-2.51-1.75,0-2.91.82-2.91,1.97,0,.89.8,1.37,2.1,1.66l4.41,1c3.37.77,5.41,2.64,5.41,5.37,0,3.99-3.33,6.39-8.74,6.39-4.74,0-8.03-1.91-8.73-5.06Z"/>
    <path class="cls-1" d="m127.56,92.43l5.05-1.37c.33,1.57,1.79,2.46,4.14,2.46,1.93,0,3.33-.87,3.33-2.02,0-.86-.98-1.46-2.5-1.79l-3.77-.8c-3.57-.77-5.78-2.66-5.78-5.39,0-3.81,3.3-6.36,8.13-6.36,4.32,0,7.6,1.97,8.47,5.14l-4.76,1.29c-.31-1.51-1.8-2.51-3.88-2.51-1.75,0-2.91.82-2.91,1.97,0,.89.8,1.37,2.1,1.66l4.41,1c3.37.77,5.41,2.64,5.41,5.37,0,3.99-3.33,6.39-8.74,6.39-4.7.02-8-1.89-8.69-5.05Z"/>
  </g>
  <path class="cls-1" d="m46.58,75.05l1.62-7.62c.07-.38-.26-.73-.64-.64-2.35.42-4.79,1.15-7.21,2.19-10.89,4.61-17.49,13.65-14.72,20.19,2.1,4.9,8.85,7,16.71,5.78l-1.62,7.62c-.07.38.26.73.64.64,2.35-.42,4.79-1.15,7.21-2.19,10.89-4.61,17.47-13.65,14.7-20.2-2.08-4.88-8.84-6.98-16.69-5.76Z"/>
</svg>